<svg width="64" height="64" viewBox="0 0 64 64" fill="none" xmlns="http://www.w3.org/2000/svg">
<circle cx="32" cy="32" r="32" fill="#E7D3FF"/>
</svg>
<svg width="32" height="32" viewBox="0 0 32 32" fill="none" xmlns="http://www.w3.org/2000/svg">
<path d="M29.024 12H25.8907C25.3613 13.3107 24.572 14.5147 23.5413 15.544L23.0747 16H25.6427L26.3187 20H22.508L22.2427 16.8147L16.0013 22.9187L9.76 16.8147L9.49467 20H5.68267L6.35867 16H8.92667L8.496 15.5787C7.44933 14.5333 6.65067 13.3173 6.11467 12H2.976L0.028 29.456L0 32H32V30L29.024 12ZM8.82667 28H4.33067L5.00667 24H9.16L8.82667 28ZM12.84 28L13.1733 24H18.8267L19.16 28H12.84ZM23.1733 28L22.84 24H26.9933L27.6693 28H23.1747H23.1733ZM16 19.1893L21.656 13.6573C23.168 12.1467 24 10.1373 24 8C24 5.86267 23.168 3.85333 21.656 2.34267C20.144 0.832 18.1347 0 16 0C13.8653 0 11.8533 0.832 10.344 2.34267C8.832 3.85333 8 5.86267 8 8C8 10.1373 8.832 12.1467 10.36 13.672L16 19.1893ZM16 5.33333C17.4733 5.33333 18.6667 6.52667 18.6667 8C18.6667 9.47333 17.4733 10.6667 16 10.6667C14.5267 10.6667 13.3333 9.47333 13.3333 8C13.3333 6.52667 14.5267 5.33333 16 5.33333Z" fill="#C34B9B"/>
</svg>
